<mxfile host="app.diagrams.net" modified="2021-04-22T10:04:17.862Z" agent="5.0 (Windows NT 10.0; Win64; x64) AppleWebKit/537.36 (KHTML, like Gecko) Chrome/89.0.4389.128 Safari/537.36" etag="bujujf2L6ZXdDLAxJ1jK" version="14.6.5" type="github">
  <diagram id="kgpKYQtTHZ0yAKxKKP6v" name="Page-1">
    <mxGraphModel dx="2062" dy="1122" grid="1" gridSize="10" guides="1" tooltips="1" connect="1" arrows="1" fold="1" page="1" pageScale="1" pageWidth="850" pageHeight="1100" math="0" shadow="0">
      <root>
        <mxCell id="0" />
        <mxCell id="1" parent="0" />
        <mxCell id="wzjEfONjaSVztIFdyo96-33" style="edgeStyle=elbowEdgeStyle;rounded=0;orthogonalLoop=1;jettySize=auto;html=1;exitX=1;exitY=0.5;exitDx=0;exitDy=0;entryX=0;entryY=0.5;entryDx=0;entryDy=0;" edge="1" parent="1" source="wzjEfONjaSVztIFdyo96-2" target="wzjEfONjaSVztIFdyo96-3">
          <mxGeometry relative="1" as="geometry" />
        </mxCell>
        <mxCell id="wzjEfONjaSVztIFdyo96-2" value="Generiek registratie model is aangeleverd" style="rounded=1;whiteSpace=wrap;html=1;arcSize=50;" vertex="1" parent="1">
          <mxGeometry x="40" y="120" width="130" height="60" as="geometry" />
        </mxCell>
        <mxCell id="wzjEfONjaSVztIFdyo96-8" style="edgeStyle=orthogonalEdgeStyle;rounded=0;orthogonalLoop=1;jettySize=auto;html=1;entryX=0;entryY=0.5;entryDx=0;entryDy=0;" edge="1" parent="1" source="wzjEfONjaSVztIFdyo96-3" target="wzjEfONjaSVztIFdyo96-5">
          <mxGeometry relative="1" as="geometry" />
        </mxCell>
        <mxCell id="wzjEfONjaSVztIFdyo96-35" style="edgeStyle=elbowEdgeStyle;rounded=0;orthogonalLoop=1;jettySize=auto;html=1;exitX=1;exitY=0.5;exitDx=0;exitDy=0;entryX=0;entryY=0.5;entryDx=0;entryDy=0;" edge="1" parent="1" source="wzjEfONjaSVztIFdyo96-3" target="wzjEfONjaSVztIFdyo96-19">
          <mxGeometry relative="1" as="geometry" />
        </mxCell>
        <mxCell id="wzjEfONjaSVztIFdyo96-3" value="Genereer configuratie bestanden" style="rounded=0;whiteSpace=wrap;html=1;" vertex="1" parent="1">
          <mxGeometry x="245" y="130" width="150" height="40" as="geometry" />
        </mxCell>
        <mxCell id="wzjEfONjaSVztIFdyo96-5" value="Genereer schema.sql" style="shape=process;whiteSpace=wrap;html=1;backgroundOutline=1;" vertex="1" parent="1">
          <mxGeometry x="260" y="200" width="120" height="40" as="geometry" />
        </mxCell>
        <mxCell id="wzjEfONjaSVztIFdyo96-6" value="Genereer dotwebstack.yml" style="shape=process;whiteSpace=wrap;html=1;backgroundOutline=1;" vertex="1" parent="1">
          <mxGeometry x="260" y="260" width="120" height="40" as="geometry" />
        </mxCell>
        <mxCell id="wzjEfONjaSVztIFdyo96-14" value="" style="edgeStyle=orthogonalEdgeStyle;rounded=0;orthogonalLoop=1;jettySize=auto;html=1;" edge="1" parent="1" target="wzjEfONjaSVztIFdyo96-6">
          <mxGeometry width="50" height="50" relative="1" as="geometry">
            <mxPoint x="240" y="220" as="sourcePoint" />
            <mxPoint x="200" y="390" as="targetPoint" />
            <Array as="points">
              <mxPoint x="240" y="280" />
            </Array>
          </mxGeometry>
        </mxCell>
        <mxCell id="wzjEfONjaSVztIFdyo96-16" value="" style="edgeStyle=orthogonalEdgeStyle;rounded=0;orthogonalLoop=1;jettySize=auto;html=1;" edge="1" parent="1">
          <mxGeometry width="50" height="50" relative="1" as="geometry">
            <mxPoint x="240" y="280" as="sourcePoint" />
            <mxPoint x="260" y="340" as="targetPoint" />
            <Array as="points">
              <mxPoint x="240" y="340" />
            </Array>
          </mxGeometry>
        </mxCell>
        <mxCell id="wzjEfONjaSVztIFdyo96-17" value="Genereer ..." style="shape=process;whiteSpace=wrap;html=1;backgroundOutline=1;" vertex="1" parent="1">
          <mxGeometry x="260" y="320" width="120" height="40" as="geometry" />
        </mxCell>
        <mxCell id="wzjEfONjaSVztIFdyo96-18" style="edgeStyle=orthogonalEdgeStyle;rounded=0;orthogonalLoop=1;jettySize=auto;html=1;entryX=0;entryY=0.5;entryDx=0;entryDy=0;" edge="1" parent="1" source="wzjEfONjaSVztIFdyo96-19" target="wzjEfONjaSVztIFdyo96-20">
          <mxGeometry relative="1" as="geometry" />
        </mxCell>
        <mxCell id="wzjEfONjaSVztIFdyo96-37" style="edgeStyle=elbowEdgeStyle;rounded=0;orthogonalLoop=1;jettySize=auto;html=1;exitX=1;exitY=0.5;exitDx=0;exitDy=0;entryX=0;entryY=0.5;entryDx=0;entryDy=0;" edge="1" parent="1" source="wzjEfONjaSVztIFdyo96-19" target="wzjEfONjaSVztIFdyo96-26">
          <mxGeometry relative="1" as="geometry" />
        </mxCell>
        <mxCell id="wzjEfONjaSVztIFdyo96-19" value="CreÃ«er database&lt;br&gt;cluster" style="rounded=0;whiteSpace=wrap;html=1;" vertex="1" parent="1">
          <mxGeometry x="435" y="130" width="150" height="40" as="geometry" />
        </mxCell>
        <mxCell id="wzjEfONjaSVztIFdyo96-20" value="" style="shape=process;whiteSpace=wrap;html=1;backgroundOutline=1;" vertex="1" parent="1">
          <mxGeometry x="450" y="200" width="120" height="40" as="geometry" />
        </mxCell>
        <mxCell id="wzjEfONjaSVztIFdyo96-21" value="" style="shape=process;whiteSpace=wrap;html=1;backgroundOutline=1;" vertex="1" parent="1">
          <mxGeometry x="450" y="260" width="120" height="40" as="geometry" />
        </mxCell>
        <mxCell id="wzjEfONjaSVztIFdyo96-22" value="" style="edgeStyle=orthogonalEdgeStyle;rounded=0;orthogonalLoop=1;jettySize=auto;html=1;" edge="1" parent="1" target="wzjEfONjaSVztIFdyo96-21">
          <mxGeometry width="50" height="50" relative="1" as="geometry">
            <mxPoint x="430" y="220" as="sourcePoint" />
            <mxPoint x="390" y="390" as="targetPoint" />
            <Array as="points">
              <mxPoint x="430" y="280" />
            </Array>
          </mxGeometry>
        </mxCell>
        <mxCell id="wzjEfONjaSVztIFdyo96-25" style="edgeStyle=orthogonalEdgeStyle;rounded=0;orthogonalLoop=1;jettySize=auto;html=1;entryX=0;entryY=0.5;entryDx=0;entryDy=0;" edge="1" parent="1" source="wzjEfONjaSVztIFdyo96-26" target="wzjEfONjaSVztIFdyo96-27">
          <mxGeometry relative="1" as="geometry" />
        </mxCell>
        <mxCell id="wzjEfONjaSVztIFdyo96-26" value="Deploy datahub" style="rounded=0;whiteSpace=wrap;html=1;" vertex="1" parent="1">
          <mxGeometry x="625" y="130" width="150" height="40" as="geometry" />
        </mxCell>
        <mxCell id="wzjEfONjaSVztIFdyo96-27" value="Deploy ingestion" style="shape=process;whiteSpace=wrap;html=1;backgroundOutline=1;" vertex="1" parent="1">
          <mxGeometry x="640" y="200" width="120" height="40" as="geometry" />
        </mxCell>
        <mxCell id="wzjEfONjaSVztIFdyo96-28" value="Deploy bulk retrieval" style="shape=process;whiteSpace=wrap;html=1;backgroundOutline=1;" vertex="1" parent="1">
          <mxGeometry x="640" y="260" width="120" height="40" as="geometry" />
        </mxCell>
        <mxCell id="wzjEfONjaSVztIFdyo96-29" value="" style="edgeStyle=orthogonalEdgeStyle;rounded=0;orthogonalLoop=1;jettySize=auto;html=1;" edge="1" parent="1" target="wzjEfONjaSVztIFdyo96-28">
          <mxGeometry width="50" height="50" relative="1" as="geometry">
            <mxPoint x="620" y="220" as="sourcePoint" />
            <mxPoint x="580" y="390" as="targetPoint" />
            <Array as="points">
              <mxPoint x="620" y="280" />
            </Array>
          </mxGeometry>
        </mxCell>
        <mxCell id="wzjEfONjaSVztIFdyo96-30" value="" style="edgeStyle=orthogonalEdgeStyle;rounded=0;orthogonalLoop=1;jettySize=auto;html=1;" edge="1" parent="1">
          <mxGeometry width="50" height="50" relative="1" as="geometry">
            <mxPoint x="620" y="280" as="sourcePoint" />
            <mxPoint x="640" y="340" as="targetPoint" />
            <Array as="points">
              <mxPoint x="620" y="340" />
            </Array>
          </mxGeometry>
        </mxCell>
        <mxCell id="wzjEfONjaSVztIFdyo96-31" value="Deploy lookup retrieval" style="shape=process;whiteSpace=wrap;html=1;backgroundOutline=1;" vertex="1" parent="1">
          <mxGeometry x="640" y="320" width="120" height="40" as="geometry" />
        </mxCell>
        <mxCell id="wzjEfONjaSVztIFdyo96-43" value="" style="endArrow=none;html=1;entryX=1;entryY=0.5;entryDx=0;entryDy=0;exitX=1;exitY=0.5;exitDx=0;exitDy=0;edgeStyle=orthogonalEdgeStyle;" edge="1" parent="1" source="wzjEfONjaSVztIFdyo96-31" target="wzjEfONjaSVztIFdyo96-27">
          <mxGeometry width="50" height="50" relative="1" as="geometry">
            <mxPoint x="490" y="480" as="sourcePoint" />
            <mxPoint x="800" y="390" as="targetPoint" />
            <Array as="points">
              <mxPoint x="810" y="340" />
              <mxPoint x="810" y="220" />
            </Array>
          </mxGeometry>
        </mxCell>
        <mxCell id="wzjEfONjaSVztIFdyo96-46" value="" style="endArrow=none;html=1;exitX=1;exitY=0.5;exitDx=0;exitDy=0;" edge="1" parent="1" source="wzjEfONjaSVztIFdyo96-28">
          <mxGeometry width="50" height="50" relative="1" as="geometry">
            <mxPoint x="420" y="470" as="sourcePoint" />
            <mxPoint x="810" y="280" as="targetPoint" />
          </mxGeometry>
        </mxCell>
        <mxCell id="wzjEfONjaSVztIFdyo96-47" value="" style="endArrow=classic;html=1;entryX=0;entryY=0.5;entryDx=0;entryDy=0;" edge="1" parent="1" target="wzjEfONjaSVztIFdyo96-48">
          <mxGeometry width="50" height="50" relative="1" as="geometry">
            <mxPoint x="810" y="240" as="sourcePoint" />
            <mxPoint x="880" y="240" as="targetPoint" />
          </mxGeometry>
        </mxCell>
        <mxCell id="wzjEfONjaSVztIFdyo96-48" value="Deploy Resultaten" style="shape=document;whiteSpace=wrap;html=1;boundedLbl=1;" vertex="1" parent="1">
          <mxGeometry x="840" y="210" width="90" height="60" as="geometry" />
        </mxCell>
        <mxCell id="wzjEfONjaSVztIFdyo96-49" value="Parallel" style="text;html=1;strokeColor=none;fillColor=none;align=center;verticalAlign=middle;whiteSpace=wrap;rounded=0;fontStyle=1;horizontal=0;" vertex="1" parent="1">
          <mxGeometry x="215" y="220" width="30" height="70" as="geometry" />
        </mxCell>
        <mxCell id="wzjEfONjaSVztIFdyo96-50" value="Parallel" style="text;html=1;strokeColor=none;fillColor=none;align=center;verticalAlign=middle;whiteSpace=wrap;rounded=0;fontStyle=1;horizontal=0;" vertex="1" parent="1">
          <mxGeometry x="405" y="220" width="30" height="70" as="geometry" />
        </mxCell>
        <mxCell id="wzjEfONjaSVztIFdyo96-51" value="Parallel" style="text;html=1;strokeColor=none;fillColor=none;align=center;verticalAlign=middle;whiteSpace=wrap;rounded=0;fontStyle=1;horizontal=0;" vertex="1" parent="1">
          <mxGeometry x="597" y="220" width="30" height="70" as="geometry" />
        </mxCell>
        <mxCell id="wzjEfONjaSVztIFdyo96-52" value="Registratie gedeployed" style="rounded=1;whiteSpace=wrap;html=1;arcSize=50;" vertex="1" parent="1">
          <mxGeometry x="830" y="120" width="130" height="60" as="geometry" />
        </mxCell>
        <mxCell id="wzjEfONjaSVztIFdyo96-53" style="edgeStyle=elbowEdgeStyle;rounded=0;orthogonalLoop=1;jettySize=auto;html=1;exitX=1;exitY=0.5;exitDx=0;exitDy=0;entryX=0;entryY=0.5;entryDx=0;entryDy=0;" edge="1" parent="1" source="wzjEfONjaSVztIFdyo96-26" target="wzjEfONjaSVztIFdyo96-52">
          <mxGeometry relative="1" as="geometry">
            <mxPoint x="790" y="160" as="sourcePoint" />
            <mxPoint x="830" y="160" as="targetPoint" />
          </mxGeometry>
        </mxCell>
      </root>
    </mxGraphModel>
  </diagram>
</mxfile>
